<?xml version="1.0" encoding="utf-8"?>
<!-- Generator: Adobe Illustrator 24.1.3, SVG Export Plug-In . SVG Version: 6.00 Build 0)  -->
<!DOCTYPE svg PUBLIC "-//W3C//DTD SVG 1.1//EN" "http://www.w3.org/Graphics/SVG/1.1/DTD/svg11.dtd" [
	<!ENTITY ns_extend "http://ns.adobe.com/Extensibility/1.0/">
	<!ENTITY ns_ai "http://ns.adobe.com/AdobeIllustrator/10.0/">
	<!ENTITY ns_graphs "http://ns.adobe.com/Graphs/1.0/">
	<!ENTITY ns_vars "http://ns.adobe.com/Variables/1.0/">
	<!ENTITY ns_imrep "http://ns.adobe.com/ImageReplacement/1.0/">
	<!ENTITY ns_sfw "http://ns.adobe.com/SaveForWeb/1.0/">
	<!ENTITY ns_custom "http://ns.adobe.com/GenericCustomNamespace/1.0/">
	<!ENTITY ns_adobe_xpath "http://ns.adobe.com/XPath/1.0/">
]>
<svg version="1.1" id="Layer_1" xmlns:x="&ns_extend;" xmlns:i="&ns_ai;" xmlns:graph="&ns_graphs;"
	 xmlns="http://www.w3.org/2000/svg" xmlns:xlink="http://www.w3.org/1999/xlink" x="0px" y="0px" viewBox="0 0 136 255"
	 style="enable-background:new 0 0 136 255;" xml:space="preserve">
<style type="text/css">
	.st0{fill-rule:evenodd;clip-rule:evenodd;fill:#FFFFFF;opacity:0.1;}
</style>
<metadata>
	<sfw  xmlns="&ns_sfw;">
		<slices></slices>
		<sliceSourceBounds  bottomLeftOrigin="true" height="255" width="136" x="0" y="0"></sliceSourceBounds>
	</sfw>
</metadata>
<path id="Path" class="st0" d="M93,179.8l2.7-10.3c0,0-2.9-34.7,16.3-26.1l-0.9,42c0,0-2.6,25-21.8,30.3
	c-19.2,5.3-78,37.5-80.4,39.4c0,0-7.6-28.8-5.6-35.5c0,0,7-3.7,13.5-12c6.4-8.3,19.8-24.3,34.3-15.1c0,0,2.5-4.6,28.3-3.4
	C79.4,189,90.6,181.1,93,179.8L93,179.8z"/>
<path id="Path_1_" class="st0" d="M2.2,217L0,205.1c0,0,11.1-3.6,11.9-13.7c0,0,2.8-18.7,2.8-21.6c0-2.9,0.9-6.4,2.4-9.1
	c1.6-2.7,8-10.7,5.4-40.1l3.3-2.6c0,0,6.7,13.9,15.6,23.8l-0.2,18.1c0,0-0.6,9.7,3.4,9.7s8.4,0,8.4,0v19.3c0,0-11.9-5.6-22,1.2
	C20.9,196.9,7.6,215.6,2.2,217L2.2,217z"/>
<path id="Shape" class="st0" d="M79.3,186.3c0,0-15.5-1.4-23.6,1.7c0,0,4.1-24.7-6.9-40.7C38.2,132.8,16,112.5,23.5,74.1
	c0,0,4.2,7.1,10.1,9.6c0,0-11.6-51.8,27.7-83.7c0,0-17.4,38.9,4.1,61.4c0,0,7.6,5.8,11.9,0.1c4.3-5.7,1.6-8.7,0.6-11.2
	c-1-2.5-14.2-22-0.7-40.3c0,0-1.6,20.2,11.2,33.6s25.2,36,26.9,55c1.7,19-1,28.6-1,28.6s-3.3,6.8-3,12.6c0,0-18.6-7.9-17.8,27.9
	L91,178.2L79.3,186.3L79.3,186.3z M48.6,108.9l5,3.2c0,0-9.1-22.1,5-37.9c0,0-2.4,32.4,12.6,30.3c0,0,5-1.2-0.7-9.7
	c0,0,20.2,3,20.2,24.1s-18.6,33.7-18.6,33.7s3.3-9.5-8.1-17C52.7,128.3,47.6,115.7,48.6,108.9L48.6,108.9z"/>
<path id="Path_2_" class="st0" d="M112.9,185.6L111,191l10.7-14.8c0,0,4.3-34,4.3-50.9c0,0-2.1-2.9-8.5,0.3
	c-6.3,3.2-5.3,14.2-5.3,14.2l1.6,0.9L112.9,185.6L112.9,185.6z"/>
<path id="Path_3_" class="st0" d="M118,123l0.4-20.9c0,0,4-5.7,11.6-1.7v7.1c0,0-8.2,0.8-9.5,14C120.5,121.5,118.4,122.1,118,123
	L118,123z"/>
<path id="Path_4_" class="st0" d="M126.6,169c0,0,3-28.8,3.4-39c0.3-10.2-3.6-8.8-7-9c0,0,2.2-15.5,13-9.8
	c0.2,17.1-2.2,32.6-2.8,49.5c0,0-1.2,2.9-3.3,5.3C127.7,168.5,126.6,169,126.6,169L126.6,169z"/>
</svg>
