<?xml version="1.0" encoding="utf-8"?>
<!-- Generator: Adobe Illustrator 24.0.1, SVG Export Plug-In . SVG Version: 6.00 Build 0)  -->
<svg version="1.1" xmlns="http://www.w3.org/2000/svg" xmlns:xlink="http://www.w3.org/1999/xlink" x="0px" y="0px"
	 viewBox="0 0 594 177.1" style="enable-background:new 0 0 594 177.1;" xml:space="preserve">
<style type="text/css">
	.st0{fill:#003150;}
</style>
<g id="V2-R8">
	<g>
		<g>
			<path d="M550.3,40.4h7.4v1.3h-2.9v7.5h-1.6v-7.5h-2.9V40.4z"/>
			<path d="M558.8,40.4h2.3l2.5,6.9h0l2.5-6.9h2.2v8.8h-1.5v-6.8h0l-2.5,6.8h-1.3l-2.5-6.8h0v6.8h-1.5V40.4z"/>
		</g>
	</g>
	<g>
		<path class="st0" d="M35.9,99.1v27.6H19.3V77.5c0-8.9,0.9-15.9,2.7-21.1c1.8-5.2,5.1-9.4,9.9-12.6c4.8-3.2,10.6-4.8,17.4-4.8
			c10.1,0,18.1,3.3,24.1,9.8c6,6.5,9,14.4,9,23.5c0,9-2.9,16.5-8.6,22.8c-5.8,6.2-12.8,9.3-21.2,9.3C47,104.4,41.5,102.6,35.9,99.1z
			 M35.9,73.6c0,5.2,1.3,9.4,3.9,12.5c2.6,3.2,6.2,4.8,10.7,4.8c4.4,0,8-1.8,10.8-5.3c2.7-3.6,4.1-8.2,4.1-14c0-5.9-1.3-10.5-3.8-14
			c-2.5-3.4-6.2-5.1-10.9-5.1c-4.1,0-7.6,1.5-10.5,4.6C37.3,60.2,35.9,65.7,35.9,73.6z"/>
		<path class="st0" d="M110.3,102.9H93.7V40.4h15.4v8.9c2.6-4.2,5-7,7.1-8.3c2.1-1.3,4.5-2,7.2-2c3.8,0,7.4,1,10.9,3.1l-5.1,14.4
			c-2.8-1.8-5.4-2.7-7.8-2.7c-2.3,0-4.3,0.6-5.9,1.9c-1.6,1.3-2.9,3.6-3.8,6.9c-0.9,3.3-1.4,10.3-1.4,21V102.9z"/>
		<path class="st0" d="M136.3,70.8c0-5.5,1.4-10.8,4.1-16c2.7-5.1,6.5-9.1,11.5-11.8c5-2.7,10.5-4.1,16.6-4.1
			c9.5,0,17.2,3.1,23.3,9.2c6,6.1,9.1,13.9,9.1,23.3c0,9.5-3.1,17.3-9.2,23.5c-6.1,6.2-13.8,9.3-23.1,9.3c-5.7,0-11.2-1.3-16.4-3.9
			c-5.2-2.6-9.2-6.4-11.9-11.4C137.7,84.1,136.3,78,136.3,70.8z M153.3,71.7c0,6.2,1.5,11,4.4,14.3c2.9,3.3,6.6,4.9,10.9,4.9
			c4.3,0,7.9-1.6,10.9-4.9c2.9-3.3,4.4-8.1,4.4-14.4c0-6.1-1.5-10.8-4.4-14.1c-2.9-3.3-6.5-4.9-10.9-4.9c-4.3,0-8,1.6-10.9,4.9
			C154.8,60.7,153.3,65.5,153.3,71.7z"/>
		<path class="st0" d="M211.4,40.4h15.3v8.5c5.5-6.6,12-10,19.5-10c4,0,7.5,0.8,10.4,2.5c2.9,1.6,5.4,4.1,7.2,7.5
			c2.7-3.3,5.7-5.8,8.9-7.5c3.2-1.6,6.6-2.5,10.2-2.5c4.6,0,8.5,0.9,11.7,2.8c3.2,1.9,5.6,4.6,7.1,8.2c1.1,2.7,1.7,7,1.7,13v40
			h-16.5V67.2c0-6.2-0.6-10.2-1.7-12c-1.5-2.4-3.9-3.5-7.1-3.5c-2.3,0-4.5,0.7-6.5,2.1c-2,1.4-3.5,3.5-4.4,6.2
			c-0.9,2.7-1.4,7-1.4,12.9v30h-16.5V68.7c0-6.1-0.3-10-0.9-11.8c-0.6-1.8-1.5-3.1-2.7-3.9c-1.2-0.9-2.9-1.3-5-1.3
			c-2.6,0-4.8,0.7-6.9,2.1c-2,1.4-3.5,3.4-4.4,5.9s-1.3,6.9-1.3,12.9v30.4h-16.5V40.4z"/>
		<path class="st0" d="M354.9,83l16.5,2.8c-2.1,6-5.5,10.7-10,13.8c-4.6,3.2-10.3,4.7-17.2,4.7c-10.9,0-18.9-3.6-24.1-10.7
			c-4.1-5.7-6.2-12.9-6.2-21.6c0-10.4,2.7-18.5,8.1-24.4c5.4-5.9,12.3-8.8,20.6-8.8c9.3,0,16.6,3.1,22,9.2c5.4,6.1,8,15.6,7.7,28.2
			h-41.5c0.1,4.9,1.5,8.7,4,11.5c2.6,2.7,5.7,4.1,9.5,4.1c2.6,0,4.8-0.7,6.5-2.1C352.6,88.5,354,86.2,354.9,83z M324.4,30.1V19.2
			h37.9v10.9H324.4z M355.8,66.3c-0.1-4.8-1.4-8.4-3.7-10.9c-2.4-2.5-5.2-3.7-8.6-3.7c-3.6,0-6.6,1.3-9,3.9
			c-2.4,2.6-3.5,6.2-3.5,10.7H355.8z"/>
		<path class="st0" d="M413.2,40.4v13.2h-11.3v25.2c0,5.1,0.1,8.1,0.3,8.9c0.2,0.8,0.7,1.5,1.5,2.1c0.8,0.6,1.7,0.8,2.8,0.8
			c1.5,0,3.7-0.5,6.7-1.6l1.4,12.8c-3.8,1.6-8.2,2.5-13.1,2.5c-3,0-5.7-0.5-8.1-1.5c-2.4-1-4.2-2.3-5.3-3.9
			c-1.1-1.6-1.9-3.7-2.3-6.4c-0.4-1.9-0.5-5.8-0.5-11.7V53.6h-7.6V40.4h7.6V28l16.6-9.7v22.1H413.2z"/>
		<path class="st0" d="M440,16.6v31.7c5.3-6.2,11.7-9.4,19.1-9.4c3.8,0,7.2,0.7,10.3,2.1c3.1,1.4,5.4,3.2,6.9,5.4
			c1.6,2.2,2.6,4.6,3.2,7.3c0.6,2.7,0.9,6.8,0.9,12.4v36.7h-16.5v-33c0-6.6-0.3-10.7-0.9-12.5c-0.6-1.8-1.7-3.2-3.3-4.2
			c-1.6-1-3.6-1.6-6-1.6c-2.7,0-5.2,0.7-7.4,2c-2.2,1.3-3.7,3.3-4.7,6c-1,2.7-1.5,6.7-1.5,11.9v31.3h-16.5V16.6H440z"/>
		<path class="st0" d="M508.3,59.5l-15-2.7c1.7-6,4.6-10.5,8.7-13.4c4.1-2.9,10.2-4.4,18.4-4.4c7.4,0,12.9,0.9,16.5,2.6
			c3.6,1.7,6.2,4,7.6,6.7c1.5,2.7,2.2,7.6,2.2,14.8l-0.2,19.3c0,5.5,0.3,9.6,0.8,12.2c0.5,2.6,1.5,5.4,3,8.4h-16.4
			c-0.4-1.1-1-2.7-1.6-4.9c-0.3-1-0.5-1.6-0.6-1.9c-2.8,2.7-5.9,4.8-9.1,6.2c-3.2,1.4-6.7,2.1-10.3,2.1c-6.4,0-11.5-1.7-15.2-5.2
			c-3.7-3.5-5.6-7.9-5.6-13.3c0-3.5,0.8-6.7,2.5-9.5c1.7-2.8,4.1-4.9,7.1-6.4c3-1.5,7.4-2.8,13.2-3.9c7.7-1.5,13.1-2.8,16.1-4.1
			v-1.6c0-3.2-0.8-5.4-2.4-6.8c-1.6-1.4-4.5-2-8.9-2c-2.9,0-5.2,0.6-6.9,1.7C510.7,54.6,509.3,56.6,508.3,59.5z M530.5,72.9
			c-2.1,0.7-5.5,1.6-10.1,2.5c-4.6,1-7.6,1.9-9,2.9c-2.2,1.5-3.2,3.5-3.2,5.8c0,2.3,0.9,4.3,2.6,6c1.7,1.7,3.9,2.5,6.6,2.5
			c3,0,5.8-1,8.5-2.9c2-1.5,3.3-3.3,3.9-5.5c0.4-1.4,0.6-4.1,0.6-8.1V72.9z"/>
	</g>
</g>
<g id="Layer_1">
</g>
</svg>
