<svg class="svg-icon" style="width: 1em; height: 1em;vertical-align: middle; color: #003150;fill: currentColor;overflow: hidden;" viewBox="0 0 1024 1024" version="1.1" xmlns="http://www.w3.org/2000/svg"><path d="M704 704h-46.2a348.16 348.16 0 0 1-291.6 0H320A256 256 0 0 0 64 960a64 64 0 0 0 64 64h768a64 64 0 0 0 64-64 256 256 0 0 0-256-256zM160 448a32 32 0 0 0 32-32v-32c0-176.44 143.56-320 320-320s320 143.56 320 320v32a160.18 160.18 0 0 1-160 160h-64a64 64 0 0 0-64-64h-64a64 64 0 0 0 0 128h192a224.28 224.28 0 0 0 224-224v-32C896 172.26 723.74 0 512 0S128 172.26 128 384v32a32 32 0 0 0 32 32z m320 0h64a128 128 0 0 1 110.82 64H672a96.1 96.1 0 0 0 96-96v-32a256 256 0 0 0-512 0c0 80.84 38.2 152 96.7 198.94-0.12-2.34-0.7-4.56-0.7-6.94a128.14 128.14 0 0 1 128-128z"  /></svg>